# xmcd
# Copyright (C) 1995-1998 Ti Kan
#
# Track frame offsets:
#       150
#       16311
#       28894
#       43562
#       56990
#
# Disc length: 956 seconds
#
# Revision: 0
# Processed by: cddbd v1.5.2PL0 Copyright (c) Steve Scherf et al.
# Submitted via: CD-Transfer v1.0
#
DISCID=3e03ba05
DTITLE=Die Jungen Zillertaler - 
DYEAR=07
DGENRE=
TTITLE0=Hüttenlied (07)
TTITLE1=Standschützen Marsch (07)
TTITLE2=Talerlied (07)
TTITLE3=Tirol (07)
TTITLE4=Im Nächsten Jahr (Partymix) 07
EXTD=
EXTT0=
EXTT1=
EXTT2=
EXTT3=
EXTT4=
PLAYORDER=
